<?xml version="1.0" encoding="UTF-8"?>
<svg xmlns="http://www.w3.org/2000/svg" xmlns:xlink="http://www.w3.org/1999/xlink" width="70.866pt" height="70.866pt" viewBox="0 0 70.866 70.866" version="1.2">
<defs>
<clipPath id="clip1">
  <path d="M 0 0 L 2 0 L 2 70.730469 L 0 70.730469 Z M 0 0 "/>
</clipPath>
<clipPath id="clip2">
  <path d="M 68 0 L 70 0 L 70 70.730469 L 68 70.730469 Z M 68 0 "/>
</clipPath>
<clipPath id="clip3">
  <path d="M 68 2 L 70 2 L 70 70.730469 L 68 70.730469 Z M 68 2 "/>
</clipPath>
<clipPath id="clip4">
  <path d="M 40 68 L 70 68 L 70 70.730469 L 40 70.730469 Z M 40 68 "/>
</clipPath>
<clipPath id="clip5">
  <path d="M 40 68 L 69 68 L 69 70.730469 L 40 70.730469 Z M 40 68 "/>
</clipPath>
<clipPath id="clip6">
  <path d="M 0 68 L 41 68 L 41 70.730469 L 0 70.730469 Z M 0 68 "/>
</clipPath>
</defs>
<g id="surface1">
<path style=" stroke:none;fill-rule:nonzero;fill:rgb(100%,0%,0%);fill-opacity:1;" d="M 45.960938 34.964844 L 46.574219 35.164063 L 47.035156 35.230469 L 47.78125 35.214844 L 48.191406 35.128906 L 50.566406 35.128906 "/>
<path style=" stroke:none;fill-rule:nonzero;fill:rgb(100%,0%,0%);fill-opacity:1;" d="M 65.9375 34.765625 L 63.328125 34.824219 L 63.5625 34.835938 L 64.183594 34.871094 L 64.785156 34.902344 L 65.492188 34.875 "/>
<path style=" stroke:none;fill-rule:nonzero;fill:rgb(100%,0%,0%);fill-opacity:1;" d="M 57.921875 28.757813 C 57.347656 29.460938 57.027344 30.441406 57.144531 31.347656 C 57.207031 32.414063 57.382813 31.789063 57.652344 32.796875 C 58.9375 35.273438 60.953125 35.246094 63.328125 34.824219 L 65.9375 34.765625 L 66.535156 34.453125 L 66.664063 34.339844 L 66.664063 33.8125 L 66.136719 33.285156 L 65.9375 33.152344 L 65.605469 33.050781 L 65.277344 33.019531 L 60.59375 33.019531 L 60.265625 32.820313 L 59.835938 32.460938 C 58.988281 31.519531 59.347656 31.769531 59.277344 30.578125 L 59.277344 30.378906 L 59.804688 29.324219 L 60.351563 29 L 60.628906 28.894531 L 61.230469 28.777344 L 61.816406 28.761719 "/>
<path style=" stroke:none;fill-rule:nonzero;fill:rgb(100%,0%,0%);fill-opacity:1;" d="M 61.089844 26.90625 L 60.378906 27.011719 L 61.648438 26.949219 "/>
<path style=" stroke:none;fill-rule:nonzero;fill:rgb(100%,0%,0%);fill-opacity:1;" d="M 45.023438 22.992188 C 40.613281 23.125 45.40625 25.203125 44.695313 27.773438 C 43.992188 29.835938 42.207031 31.136719 43.804688 33.316406 L 47.300781 33.21875 C 46.589844 33.257813 45.953125 32.859375 45.453125 32.394531 L 45.289063 32.226563 L 45.289063 31.4375 L 45.5625 30.914063 L 45.859375 30.324219 L 46.179688 29.65625 C 47.191406 27.171875 46.898438 25.148438 45.132813 23.113281 "/>
<path style=" stroke:none;fill-rule:nonzero;fill:rgb(100%,0%,0%);fill-opacity:1;" d="M 54.984375 22.894531 C 52.742188 22.867188 52.355469 25.890625 52.371094 27.582031 C 52.726563 30.964844 54.820313 29.980469 52.941406 33.019531 L 50.566406 33.019531 L 55.3125 33.027344 C 56.117188 31.53125 55.324219 30.023438 54.722656 28.632813 C 54.117188 27.429688 54.183594 27.152344 54.394531 25.828125 L 54.527344 25.367188 L 54.691406 25.203125 L 54.953125 24.972656 L 55.28125 24.738281 L 55.578125 24.578125 L 55.578125 24.246094 L 55.550781 23.78125 L 55.449219 23.320313 L 55.316406 22.992188 "/>
<path style=" stroke:none;fill-rule:nonzero;fill:rgb(100%,0%,0%);fill-opacity:1;" d="M 57.691406 22.730469 L 57.164063 23.519531 L 57.164063 24.046875 L 57.691406 24.578125 L 57.855469 24.707031 L 58.121094 24.804688 L 58.449219 24.839844 L 64.023438 24.839844 L 64.554688 25.628906 L 64.519531 25.960938 L 64.355469 26.390625 L 64.058594 26.75 L 63.761719 26.949219 L 61.648438 26.949219 C 60.003906 26.757813 58.914063 27.558594 57.921875 28.757813 L 61.816406 28.761719 L 62.511719 28.800781 L 63.066406 28.832031 L 63.765625 28.828125 L 64.023438 28.796875 C 64.78125 28.585938 65.691406 28 66.007813 27.246094 C 66.5 26.203125 66.527344 25.398438 65.996094 24.375 L 65.664063 23.851563 L 65.605469 23.78125 L 65.136719 23.386719 L 64.578125 23.039063 L 64.058594 22.792969 L 57.992188 22.75 "/>
<path style=" stroke:none;fill-rule:nonzero;fill:rgb(100%,0%,0%);fill-opacity:1;" d="M 62.167969 22.457031 C 60.765625 22.441406 59.363281 22.738281 57.992188 22.75 L 64.058594 22.792969 L 63.488281 22.609375 L 62.863281 22.496094 "/>
<path style=" stroke:none;fill-rule:nonzero;fill:rgb(100%,0%,0%);fill-opacity:1;" d="M 45.136719 19.019531 L 44.523438 19.109375 L 44.429688 19.132813 L 43.777344 19.371094 L 48.457031 19.300781 C 47.574219 19.28125 46.742188 19.082031 45.847656 19.03125 "/>
<path style=" stroke:none;fill-rule:nonzero;fill:rgb(100%,0%,0%);fill-opacity:1;" d="M 39.222656 17.449219 C 40.035156 17.695313 41.015625 17.476563 41.859375 17.449219 "/>
<path style=" stroke:none;fill-rule:nonzero;fill:rgb(100%,0%,0%);fill-opacity:1;" d="M 43.15625 17.390625 L 39.222656 17.449219 L 41.859375 17.449219 L 42.441406 17.5 "/>
<path style=" stroke:none;fill-rule:nonzero;fill:rgb(100%,0%,0%);fill-opacity:1;" d="M 64.96875 17.300781 L 61.460938 17.40625 C 62.421875 17.421875 63.378906 17.496094 64.335938 17.414063 "/>
<path style=" stroke:none;fill-rule:nonzero;fill:rgb(100%,0%,0%);fill-opacity:1;" d="M 41.132813 15.570313 L 40.542969 15.582031 L 39.898438 15.652344 L 42.652344 15.601563 L 42.101563 15.597656 L 41.375 15.578125 "/>
<path style=" stroke:none;fill-rule:nonzero;fill:rgb(100%,0%,0%);fill-opacity:1;" d="M 60.769531 15.222656 C 57.28125 15.222656 53.789063 15.328125 50.304688 15.339844 L 66.003906 15.636719 L 65.871094 15.339844 C 64.382813 15.269531 62.894531 15.238281 61.40625 15.226563 "/>
<path style=" stroke:none;fill-rule:nonzero;fill:rgb(100%,0%,0%);fill-opacity:1;" d="M 38.132813 13.988281 L 38.8125 14.042969 L 38.957031 14.019531 L 42.652344 14.019531 "/>
<path style=" stroke:none;fill-rule:nonzero;fill:rgb(100%,0%,0%);fill-opacity:1;" d="M 65.332031 13.621094 L 62.257813 13.65625 C 63.085938 13.632813 63.894531 13.8125 64.71875 13.753906 "/>
<path style=" stroke:none;fill-rule:nonzero;fill:rgb(100%,0%,0%);fill-opacity:1;" d="M 41.199219 11.738281 C 40.238281 11.710938 39.289063 11.972656 38.347656 11.921875 L 43.476563 12.066406 L 42.871094 11.863281 L 42.195313 11.757813 L 41.925781 11.742188 "/>
<path style=" stroke:none;fill-rule:nonzero;fill:rgb(100%,0%,0%);fill-opacity:1;" d="M 65.605469 11.644531 C 60.59375 11.636719 55.574219 11.648438 50.566406 11.910156 L 66.003906 12.042969 L 65.773438 11.8125 "/>
<path style=" stroke:none;fill-rule:nonzero;fill:rgb(100%,0%,0%);fill-opacity:1;" d="M 55.941406 8.101563 C 54.148438 8.097656 52.355469 8.128906 50.566406 8.214844 L 65.773438 8.25 C 62.742188 8.160156 59.664063 8.144531 56.625 8.101563 "/>
<path style=" stroke:none;fill-rule:nonzero;fill:rgb(100%,0%,0%);fill-opacity:1;" d="M 62.152344 6.386719 L 55.308594 6.390625 C 57.386719 6.394531 59.46875 6.46875 61.546875 6.414063 "/>
<path style=" stroke:none;fill-rule:nonzero;fill:rgb(100%,0%,0%);fill-opacity:1;" d="M 65.671875 6.300781 L 62.441406 6.367188 C 63.382813 6.398438 64.265625 6.605469 65.222656 6.4375 "/>
<path style=" stroke:none;fill-rule:nonzero;fill:rgb(100%,0%,0%);fill-opacity:1;" d="M 40.652344 4.574219 C 39.488281 4.597656 38.375 4.738281 37.230469 4.933594 L 36.597656 5.015625 L 36.316406 5.046875 L 36.054688 5.214844 L 35.855469 5.476563 L 35.789063 5.808594 L 35.789063 6.105469 L 36.316406 6.632813 L 41.792969 6.632813 L 42.15625 6.664063 L 42.585938 6.761719 L 42.914063 6.894531 L 43.179688 7.160156 L 42.914063 7.953125 L 42.652344 8.214844 L 42.046875 8.265625 L 41.363281 8.28125 L 40.746094 8.289063 L 40.070313 8.300781 L 39.648438 8.3125 L 38.929688 8.367188 L 38.296875 8.46875 L 38 8.546875 L 37.328125 8.773438 L 36.84375 9.007813 L 36.429688 9.519531 C 36.03125 10.109375 35.804688 10.953125 36.054688 11.644531 L 36.246094 12.238281 L 36.351563 12.46875 L 36.683594 12.992188 L 37.109375 13.425781 L 37.6875 13.828125 L 38.132813 13.988281 L 42.652344 14.019531 L 43.179688 14.546875 L 43.179688 15.339844 L 42.652344 15.601563 L 39.898438 15.652344 L 39.207031 15.78125 L 38.855469 15.867188 L 38.167969 16.09375 C 37.121094 16.484375 36.34375 17.445313 36.054688 18.507813 C 36.085938 20.8125 36.859375 23.007813 37.246094 25.269531 C 37.527344 26.671875 37.332031 28.761719 37.128906 30.132813 C 36.972656 31.132813 36.734375 32.078125 36.375 33.019531 C 35.855469 34.285156 36.078125 33.578125 36.316406 34.867188 L 36.84375 35.128906 L 37.636719 35.128906 L 37.636719 35.097656 L 37.667969 35 L 37.769531 34.902344 L 37.902344 34.867188 L 38.160156 34.34375 L 38.425781 33.753906 C 39.011719 32.386719 39.316406 31.175781 39.453125 29.6875 C 39.671875 27.992188 39.386719 23.921875 38.871094 22.296875 C 38.585938 21.242188 37.820313 19.824219 38.160156 18.742188 L 38.199219 18.636719 L 38.507813 18.0625 L 38.960938 17.613281 L 39.222656 17.449219 L 43.15625 17.390625 L 43.179688 17.386719 L 43.734375 17.164063 C 44.75 16.554688 45.644531 15.40625 45.410156 14.152344 L 45.289063 13.757813 L 44.925781 13.230469 L 44.476563 12.753906 L 44.003906 12.371094 L 43.476563 12.066406 L 38.347656 11.921875 L 38.164063 11.910156 L 37.902344 11.382813 L 37.902344 10.855469 L 38.691406 10.324219 L 42.386719 10.324219 L 42.957031 10.1875 L 43.589844 9.886719 L 43.738281 9.796875 C 44.597656 9.308594 45.207031 7.960938 45.109375 7 L 44.992188 6.5 L 44.683594 5.851563 L 44.304688 5.375 L 44.234375 5.3125 C 43.382813 4.90625 42.296875 4.621094 41.351563 4.585938 "/>
<path style=" stroke:none;fill-rule:nonzero;fill:rgb(100%,0%,0%);fill-opacity:1;" d="M 52.917969 4.449219 L 52.199219 4.46875 L 51.984375 4.488281 L 51.40625 4.601563 L 53.46875 4.519531 "/>
<path style=" stroke:none;fill-rule:nonzero;fill:rgb(100%,0%,0%);fill-opacity:1;" d="M 65.113281 4.421875 C 47.804688 5.261719 47.644531 0.734375 48.457031 19.300781 L 43.777344 19.371094 L 43.441406 19.5625 L 43.441406 20.351563 L 43.707031 20.878906 L 43.871094 21.015625 L 44.132813 21.113281 L 44.464844 21.144531 L 48.457031 21.144531 C 48.457031 25.105469 48.457031 29.0625 48.457031 33.019531 L 47.960938 33.152344 L 47.304688 33.21875 L 47.300781 33.21875 L 43.804688 33.316406 L 44.183594 33.792969 L 44.667969 34.226563 L 45.257813 34.617188 L 45.289063 34.632813 L 45.960938 34.964844 L 50.566406 35.128906 L 51.175781 35.1875 L 51.589844 35.195313 C 53.128906 35.117188 54.425781 34.257813 55.3125 33.027344 L 50.566406 33.019531 C 50.324219 29.066406 50.546875 25.097656 50.304688 21.144531 L 63.234375 21.144531 L 63.882813 21.078125 L 63.925781 21.078125 L 64.558594 21.0625 L 64.914063 21.046875 L 65.59375 20.921875 L 65.839844 20.816406 L 66.359375 20.40625 L 66.402344 20.351563 L 66.367188 20.023438 L 66.234375 19.59375 L 66.035156 19.230469 L 65.871094 19.03125 L 50.304688 19.03125 L 50.304688 17.449219 L 60.855469 17.449219 L 61.460938 17.40625 L 64.96875 17.300781 L 65.246094 17.21875 L 65.894531 16.957031 L 66.402344 16.660156 L 66.269531 16.363281 L 66.003906 15.636719 L 50.304688 15.339844 L 50.304688 13.757813 L 61.648438 13.757813 L 62.257813 13.65625 L 65.332031 13.621094 L 65.410156 13.589844 L 66.011719 13.28125 L 66.402344 12.964844 L 66.402344 12.4375 L 66.234375 12.273438 L 66.003906 12.042969 L 50.566406 11.910156 L 50.566406 10.324219 L 50.898438 10.195313 L 51.394531 10.097656 L 51.953125 10.0625 L 65.113281 10.0625 L 65.476563 10.027344 L 65.839844 9.929688 L 66.136719 9.796875 L 66.167969 9.601563 L 66.269531 9.269531 L 66.367188 8.941406 L 66.402344 8.742188 L 66.234375 8.578125 L 66.003906 8.378906 L 65.773438 8.25 L 50.566406 8.214844 L 50.832031 6.894531 L 50.863281 6.894531 L 50.964844 6.863281 L 51.0625 6.761719 L 51.09375 6.632813 C 52.484375 6.445313 53.910156 6.398438 55.308594 6.390625 L 62.152344 6.386719 L 62.441406 6.367188 L 65.671875 6.300781 L 66.265625 5.960938 L 66.402344 5.839844 L 66.402344 5.046875 L 65.871094 4.519531 L 65.542969 4.488281 "/>
<path style=" stroke:none;fill-rule:nonzero;fill:rgb(100%,0%,0%);fill-opacity:1;" d="M 56.21875 4.40625 C 55.300781 4.40625 54.382813 4.507813 53.46875 4.519531 L 57.691406 4.519531 L 57.066406 4.441406 L 56.835938 4.421875 "/>
<path style=" stroke:none;fill-rule:nonzero;fill:rgb(100%,0%,0%);fill-opacity:1;" d="M 44.972656 64.402344 C 49.40625 65.039063 55.105469 64.621094 59.613281 64.476563 "/>
<path style=" stroke:none;fill-rule:nonzero;fill:rgb(100%,0%,0%);fill-opacity:1;" d="M 59.207031 62.351563 C 57.980469 62.347656 56.777344 62.632813 55.554688 62.695313 L 62.246094 62.734375 L 61.574219 62.578125 L 61.296875 62.53125 L 60.566406 62.433594 L 59.867188 62.375 "/>
<path style=" stroke:none;fill-rule:nonzero;fill:rgb(100%,0%,0%);fill-opacity:1;" d="M 63.476563 60.277344 L 61.625 60.320313 L 62.207031 60.363281 L 62.878906 60.351563 "/>
<path style=" stroke:none;fill-rule:nonzero;fill:rgb(100%,0%,0%);fill-opacity:1;" d="M 59.695313 58.359375 C 58.316406 58.34375 56.933594 58.460938 55.554688 58.472656 L 61.625 58.472656 L 61.03125 58.414063 L 60.304688 58.375 "/>
<path style=" stroke:none;fill-rule:nonzero;fill:rgb(100%,0%,0%);fill-opacity:1;" d="M 43.679688 56.625 C 42.492188 56.621094 42.597656 56.816406 42.394531 57.847656 C 42.195313 59.03125 42.351563 60.222656 42.363281 61.410156 L 42.363281 61.902344 L 42.621094 62.449219 L 43.015625 63.046875 L 43.023438 63.058594 L 43.441406 63.519531 L 43.96875 63.917969 L 44.308594 64.113281 L 44.972656 64.402344 L 59.613281 64.476563 L 60.1875 64.515625 L 60.824219 64.636719 C 61.894531 64.90625 62.929688 65.320313 63.769531 66.058594 L 64.300781 66.558594 L 64.746094 67.042969 L 65.054688 67.445313 L 66.109375 67.445313 L 66.640625 66.917969 L 66.640625 66.125 L 66.277344 65.621094 L 65.867188 65.132813 L 65.40625 64.65625 L 64.898438 64.191406 L 64.527344 63.882813 L 64.019531 63.515625 L 63.46875 63.207031 L 62.878906 62.945313 L 62.246094 62.734375 L 55.554688 62.695313 L 45.527344 62.695313 C 43.355469 61.097656 45.320313 58.269531 43.703125 56.644531 "/>
<path style=" stroke:none;fill-rule:nonzero;fill:rgb(100%,0%,0%);fill-opacity:1;" d="M 65.847656 56.625 L 65.054688 56.625 L 64.691406 57.15625 L 64.363281 57.515625 L 63.847656 57.914063 L 63.339844 58.144531 C 60.984375 58.898438 57.460938 58.308594 55.554688 58.472656 L 66.046875 58.835938 C 66.714844 57.800781 66.886719 57.703125 66.109375 56.691406 "/>
<path style=" stroke:none;fill-rule:nonzero;fill:rgb(100%,0%,0%);fill-opacity:1;" d="M 65.582031 52.933594 L 43.15625 52.933594 L 42.628906 53.457031 L 42.492188 53.625 L 42.394531 53.855469 L 42.363281 54.085938 L 42.363281 54.25 L 42.628906 54.515625 L 42.660156 54.550781 L 42.757813 54.648438 L 42.890625 54.777344 L 45.167969 54.777344 L 45.761719 54.78125 C 48.328125 54.796875 50.886719 54.847656 53.445313 55.042969 L 53.445313 62.695313 L 45.527344 62.695313 L 55.554688 62.695313 C 55.3125 61.925781 55.535156 61.105469 55.554688 60.320313 L 61.625 60.320313 L 63.476563 60.277344 L 64.113281 60.097656 L 64.628906 59.894531 L 65.261719 59.550781 L 65.765625 59.15625 L 66.046875 58.835938 L 55.554688 58.472656 L 55.554688 54.777344 L 66.109375 54.777344 L 66.640625 54.25 L 66.375 53.457031 L 66.210938 53.296875 L 65.976563 53.097656 L 65.75 52.964844 "/>
<path style=" stroke:none;fill-rule:nonzero;fill:rgb(100%,0%,0%);fill-opacity:1;" d="M 65.222656 49.765625 C 58.921875 50.585938 49.375 49.027344 42.628906 50.292969 L 42.363281 50.558594 L 42.363281 51.085938 L 42.394531 51.25 L 42.527344 51.480469 L 42.726563 51.710938 L 42.890625 51.878906 L 64.792969 51.878906 L 65.121094 51.84375 L 65.582031 51.679688 L 66.046875 51.382813 L 66.375 51.085938 L 66.375 50.558594 L 66.109375 50.027344 L 65.816406 49.898438 L 65.484375 49.796875 "/>
<path style=" stroke:none;fill-rule:nonzero;fill:rgb(100%,0%,0%);fill-opacity:1;" d="M 55.203125 48.710938 L 45.542969 48.730469 C 48.570313 48.742188 51.605469 48.824219 54.628906 48.738281 "/>
<path style=" stroke:none;fill-rule:nonzero;fill:rgb(100%,0%,0%);fill-opacity:1;" d="M 40.21875 46.75 L 39.507813 46.777344 L 39.359375 46.796875 L 38.796875 46.945313 L 40.777344 46.863281 "/>
<path style=" stroke:none;fill-rule:nonzero;fill:rgb(100%,0%,0%);fill-opacity:1;" d="M 59.40625 46.746094 C 56.285156 46.746094 53.167969 46.792969 50.046875 46.832031 C 48.628906 46.847656 47.210938 46.863281 45.792969 46.863281 L 40.777344 46.863281 L 38.796875 46.945313 L 38.226563 47.238281 L 37.648438 47.664063 L 37.546875 47.753906 L 37.03125 48.28125 L 36.65625 48.8125 C 35.964844 50.238281 36.25 50.6875 36.667969 52.046875 C 37.042969 53.296875 37.320313 54.613281 37.550781 55.898438 C 38.167969 58.472656 37.640625 61.871094 37.082031 64.425781 L 36.953125 64.871094 L 36.722656 65.570313 L 36.492188 66.1875 L 36.292969 66.652344 L 36.558594 67.445313 L 37.082031 67.710938 L 37.613281 67.710938 L 38.40625 67.183594 L 38.589844 66.640625 L 38.785156 66.03125 L 38.992188 65.351563 L 39.128906 64.871094 L 39.285156 64.292969 L 39.429688 63.675781 C 39.972656 61.226563 40.390625 57.285156 39.722656 54.84375 C 39.320313 53.542969 38.40625 52.050781 38.398438 50.71875 C 38.679688 48.402344 38.847656 49.0625 40.757813 48.84375 C 42.125 48.769531 43.488281 48.738281 44.855469 48.730469 L 45.542969 48.730469 L 55.203125 48.710938 L 65.582031 48.710938 L 65.75 48.578125 L 66.011719 48.445313 L 66.34375 48.3125 L 66.640625 48.179688 L 66.640625 47.390625 L 66.109375 46.863281 L 65.558594 46.84375 L 64.960938 46.824219 L 64.324219 46.808594 L 63.648438 46.792969 C 62.449219 46.769531 61.25 46.75 60.050781 46.75 "/>
<path style=" stroke:none;fill-rule:nonzero;fill:rgb(100%,0%,0%);fill-opacity:1;" d="M 55.984375 42.308594 L 51.730469 42.308594 C 53.167969 42.289063 54.359375 42.4375 55.796875 42.3125 "/>
<path style=" stroke:none;fill-rule:nonzero;fill:rgb(100%,0%,0%);fill-opacity:1;" d="M 60.832031 40.496094 L 60.371094 40.496094 L 60.042969 40.53125 L 52.125 40.53125 L 46.25 40.574219 L 42.230469 40.628906 L 41.542969 40.828125 L 41.042969 41.058594 L 41.042969 41.585938 L 41.308594 42.113281 L 41.339844 42.113281 L 41.441406 42.148438 L 41.539063 42.246094 L 41.570313 42.375 C 44.394531 42.535156 47.226563 42.375 50.050781 42.328125 C 52.960938 42.277344 55.882813 42.335938 58.789063 42.296875 L 59.457031 42.257813 L 60.058594 42.191406 L 60.140625 42.179688 L 60.863281 42.050781 L 61.46875 41.898438 L 61.625 41.851563 L 61.890625 41.585938 L 61.625 41.058594 L 61.296875 40.695313 "/>
<path style=" stroke:none;fill-rule:nonzero;fill:rgb(100%,0%,0%);fill-opacity:1;" d="M 43.945313 40.496094 L 43.222656 40.5 L 42.582031 40.5625 L 42.230469 40.628906 L 46.25 40.574219 L 45.660156 40.5625 L 45.0625 40.539063 L 44.382813 40.511719 "/>
<path style=" stroke:none;fill-rule:nonzero;fill:rgb(100%,0%,0%);fill-opacity:1;" d="M 50.390625 40.414063 C 49.027344 40.433594 47.613281 40.507813 46.25 40.574219 L 52.125 40.53125 L 51.511719 40.464844 L 51.003906 40.429688 "/>
<path style=" stroke:none;fill-rule:nonzero;fill:rgb(100%,0%,0%);fill-opacity:1;" d="M 41.703125 39.175781 L 42.363281 39.210938 L 62.414063 39.210938 L 62.84375 39.175781 "/>
<path style=" stroke:none;fill-rule:nonzero;fill:rgb(100%,0%,0%);fill-opacity:1;" d="M 65.832031 39.003906 L 40.777344 39.144531 L 41.46875 39.160156 L 41.703125 39.175781 L 62.84375 39.175781 L 63.433594 39.390625 L 63.570313 39.472656 C 64.773438 40.351563 64.601563 40.515625 64.453125 41.851563 L 64.363281 42.179688 L 64.066406 42.785156 L 63.867188 43.003906 L 63.316406 43.382813 L 63.210938 43.433594 L 62.652344 43.453125 C 61.363281 43.496094 60.078125 43.53125 58.789063 43.566406 C 56.496094 43.621094 54.203125 43.648438 51.90625 43.671875 C 48.40625 43.785156 44.132813 43.503906 40.863281 43.882813 L 65.523438 44 C 66.492188 42.921875 66.648438 40.84375 66.113281 39.542969 "/>
<path style=" stroke:none;fill-rule:nonzero;fill:rgb(100%,0%,0%);fill-opacity:1;" d="M 40.757813 37.039063 L 40.039063 37.097656 L 39.824219 37.132813 L 39.265625 37.285156 L 45.890625 37.164063 C 44.367188 37.164063 42.832031 37.152344 41.308594 37.101563 "/>
<path style=" stroke:none;fill-rule:nonzero;fill:rgb(100%,0%,0%);fill-opacity:1;" d="M 58.625 37.03125 C 52.175781 37.078125 45.710938 37.183594 39.265625 37.285156 C 34.945313 38.550781 35.621094 44.929688 39.746094 45.5625 C 44.207031 45.6875 48.664063 45.667969 53.125 45.621094 C 55.414063 45.605469 57.699219 45.574219 59.988281 45.554688 C 62.46875 45.46875 63.519531 45.988281 65.523438 44 L 40.863281 43.882813 L 40.613281 43.863281 L 40.027344 43.722656 L 39.472656 43.421875 C 38.753906 42.875 38.097656 42.089844 38.285156 41.117188 L 38.304688 41.023438 L 38.527344 40.382813 L 38.859375 39.835938 L 39.195313 39.472656 L 39.8125 39.253906 L 39.855469 39.242188 L 40.484375 39.152344 L 40.777344 39.144531 L 65.832031 39.003906 C 63.75 36.304688 62.386719 37.238281 59.324219 37.035156 "/>
<path style=" stroke:none;fill-rule:nonzero;fill:rgb(100%,0%,0%);fill-opacity:1;" d="M 13.089844 67.675781 L 11.722656 67.675781 L 12.339844 67.695313 L 12.496094 67.710938 "/>
<path style=" stroke:none;fill-rule:nonzero;fill:rgb(100%,0%,0%);fill-opacity:1;" d="M 7.207031 67.613281 C 9.082031 68 11.1875 67.574219 13.089844 67.675781 "/>
<path style=" stroke:none;fill-rule:nonzero;fill:rgb(100%,0%,0%);fill-opacity:1;" d="M 13.15625 65.398438 C 11.261719 65.394531 9.371094 65.464844 7.480469 65.597656 L 18.992188 65.628906 C 17.101563 65.445313 15.074219 65.40625 13.171875 65.398438 "/>
<path style=" stroke:none;fill-rule:nonzero;fill:rgb(100%,0%,0%);fill-opacity:1;" d="M 14.5 56.121094 C 12.929688 56.125 11.363281 56.167969 9.789063 56.164063 L 16.914063 56.191406 L 16.386719 56.164063 L 15.792969 56.140625 L 15.164063 56.125 "/>
<path style=" stroke:none;fill-rule:nonzero;fill:rgb(100%,0%,0%);fill-opacity:1;" d="M 29.125 48.972656 L 21.203125 48.972656 L 29.691406 48.992188 "/>
<path style=" stroke:none;fill-rule:nonzero;fill:rgb(100%,0%,0%);fill-opacity:1;" d="M 16.453125 44.652344 L 12.300781 44.707031 C 13.507813 44.707031 14.8125 44.875 16.003906 44.726563 "/>
<path style=" stroke:none;fill-rule:nonzero;fill:rgb(100%,0%,0%);fill-opacity:1;" d="M 26.433594 42.609375 L 25.953125 42.640625 L 27.804688 42.660156 L 27.207031 42.640625 "/>
<path style=" stroke:none;fill-rule:nonzero;fill:rgb(100%,0%,0%);fill-opacity:1;" d="M 22.851563 42.542969 L 22.292969 42.542969 L 21.796875 42.609375 L 21.46875 42.640625 L 20.886719 42.714844 L 27.804688 42.660156 L 25.953125 42.640625 L 23.316406 42.640625 "/>
<path style=" stroke:none;fill-rule:nonzero;fill:rgb(100%,0%,0%);fill-opacity:1;" d="M 23.316406 38.417969 L 23.316406 42.640625 L 25.953125 42.640625 L 26.21875 38.417969 L 27.042969 38.417969 "/>
<path style=" stroke:none;fill-rule:nonzero;fill:rgb(100%,0%,0%);fill-opacity:1;" d="M 27.019531 36.332031 L 26.390625 36.332031 L 26.054688 36.339844 L 25.304688 36.351563 L 28.425781 36.375 L 27.695313 36.34375 "/>
<path style=" stroke:none;fill-rule:nonzero;fill:rgb(100%,0%,0%);fill-opacity:1;" d="M 5.105469 36.308594 L 4.316406 36.308594 L 3.523438 37.101563 C 4.832031 43.574219 6.214844 50.1875 4.644531 56.757813 C 4.59375 59.46875 2.375 63.804688 4.511719 65.992188 L 4.96875 66.511719 L 5.105469 66.652344 L 5.613281 66.988281 L 6.214844 67.285156 L 6.625 67.445313 L 7.207031 67.613281 L 13.089844 67.675781 L 13.796875 67.695313 L 13.945313 67.710938 C 15.847656 67.828125 17.515625 68.21875 19.355469 67.445313 C 19.332031 67.03125 19.398438 66.335938 19.324219 65.960938 L 19.191406 65.761719 L 18.992188 65.628906 L 7.480469 65.597656 L 7.152344 65.433594 L 6.722656 65.171875 L 6.359375 64.839844 C 5.386719 63.464844 6.765625 60.027344 6.953125 58.472656 L 18.070313 58.472656 L 18.433594 58.441406 L 18.792969 58.339844 L 19.09375 58.207031 L 19.222656 57.878906 L 19.289063 57.417969 L 19.222656 56.957031 L 19.09375 56.625 L 19.0625 56.625 L 18.960938 56.59375 L 18.863281 56.492188 L 18.828125 56.363281 C 15.070313 55.886719 11.25 56.324219 7.480469 56.097656 C 8.007813 52.425781 8.019531 48.707031 7.746094 45.015625 C 11.007813 44.492188 14.734375 45.21875 17.773438 44.222656 L 17.507813 42.902344 L 16.71875 42.113281 L 7.21875 42.113281 C 7.285156 41.480469 6.730469 41.257813 6.625 40.265625 C 6.339844 39.003906 6.3125 37.683594 5.441406 36.648438 "/>
<path style=" stroke:none;fill-rule:nonzero;fill:rgb(100%,0%,0%);fill-opacity:1;" d="M 19.027344 36.207031 L 18.597656 36.242188 L 18.234375 36.40625 L 18.039063 36.570313 L 17.90625 36.734375 L 17.804688 37 C 17.753906 37.65625 17.652344 37.851563 18.265625 38.253906 L 18.566406 38.417969 L 27.042969 38.417969 L 27.664063 38.429688 L 28.195313 38.453125 L 28.898438 38.5 L 29.351563 38.550781 L 30.03125 38.65625 L 30.175781 38.683594 L 30.964844 39.210938 L 31.496094 40.265625 L 31.230469 40.265625 C 31.183594 41.550781 30.492188 42.382813 29.1875 42.542969 L 28.46875 42.625 L 27.804688 42.660156 L 20.886719 42.714844 L 20.238281 42.933594 L 19.949219 43.070313 L 19.457031 43.386719 C 18.625 44.042969 17.863281 45.445313 17.726563 46.484375 L 17.707031 46.699219 L 17.6875 47.460938 L 17.746094 48.058594 L 17.773438 48.179688 L 18.140625 48.683594 L 18.300781 48.90625 C 20.386719 51.648438 20.953125 51.0625 24.121094 51.210938 C 25.289063 51.21875 26.453125 51.210938 27.617188 51.234375 L 28.214844 51.25 L 28.230469 51.25 L 28.972656 51.277344 L 29.632813 51.308594 L 30.175781 51.347656 L 31.496094 53.195313 C 29.492188 57.746094 29.066406 63.457031 32.023438 67.710938 L 32.8125 67.710938 L 32.980469 67.578125 L 33.441406 67.3125 L 33.605469 67.183594 C 32.324219 62.601563 31.402344 58.953125 33.5625 54.460938 C 34.132813 52.652344 32.683594 50.152344 31.035156 49.402344 L 30.324219 49.136719 L 29.691406 48.992188 L 21.203125 48.972656 L 21.007813 48.808594 L 20.675781 48.546875 L 20.347656 48.214844 L 20.148438 47.917969 L 20.015625 47.585938 L 19.917969 47.125 L 19.882813 46.664063 L 19.882813 46.335938 L 20.050781 45.972656 C 20.617188 44.71875 21.347656 45.070313 22.476563 44.929688 C 23.625 44.878906 24.769531 44.886719 25.917969 44.878906 C 27.988281 44.722656 30.691406 45.238281 32.242188 43.53125 C 33.738281 41.746094 34.128906 39.542969 32.414063 37.738281 C 31.714844 37.113281 30.46875 36.628906 29.539063 36.488281 C 26.585938 36.101563 22.246094 36.519531 19.355469 36.308594 "/>
<path style=" stroke:none;fill-rule:nonzero;fill:rgb(100%,0%,0%);fill-opacity:1;" d="M 17.246094 29.324219 L 17.246094 34.339844 L 17.378906 34.503906 L 17.507813 34.734375 L 17.640625 34.964844 L 17.773438 35.128906 L 18.828125 34.867188 L 19.09375 34.605469 L 19.160156 33.992188 L 19.191406 33.480469 L 19.207031 32.867188 L 19.199219 32.175781 C 19.175781 31.226563 19.101563 30.277344 19.09375 29.324219 L 21.535156 29.324219 "/>
<path style=" stroke:none;fill-rule:nonzero;fill:rgb(100%,0%,0%);fill-opacity:1;" d="M 32.707031 28.886719 L 17.246094 29.324219 C 21.730469 29.320313 26.222656 29.289063 30.703125 29.589844 C 30.996094 31.34375 31.242188 33.105469 31.496094 34.867188 L 32.285156 35.128906 L 32.484375 35 L 32.8125 34.835938 L 33.144531 34.605469 L 33.34375 34.339844 L 33.277344 33.777344 C 33.121094 32.371094 32.902344 30.96875 32.769531 29.5625 "/>
<path style=" stroke:none;fill-rule:nonzero;fill:rgb(100%,0%,0%);fill-opacity:1;" d="M 17.246094 24.046875 C 17.246094 25.191406 17.246094 26.335938 17.246094 27.476563 L 5.898438 27.476563 L 19.09375 27.476563 C 19.089844 26.34375 19.097656 25.152344 19.355469 24.046875 L 30.703125 24.046875 "/>
<path style=" stroke:none;fill-rule:nonzero;fill:rgb(100%,0%,0%);fill-opacity:1;" d="M 32.488281 23.949219 L 17.246094 24.046875 L 30.703125 24.046875 L 30.703125 27.476563 L 19.09375 27.476563 L 3.808594 27.757813 C 3.605469 30.058594 3.304688 32.320313 2.996094 34.605469 L 3.128906 34.632813 L 3.261719 34.765625 L 3.390625 34.964844 L 3.523438 35.128906 L 3.820313 35.097656 L 4.546875 34.902344 L 4.84375 34.867188 C 5.347656 33.058594 5.390625 31.175781 5.632813 29.324219 L 17.246094 29.324219 L 32.707031 28.886719 C 32.582031 27.445313 32.472656 26.015625 32.480469 24.566406 "/>
<path style=" stroke:none;fill-rule:nonzero;fill:rgb(100%,0%,0%);fill-opacity:1;" d="M 17.246094 18.507813 C 17.246094 19.738281 17.246094 20.96875 17.246094 22.199219 L 19.09375 22.199219 L 19.09375 18.507813 "/>
<path style=" stroke:none;fill-rule:nonzero;fill:rgb(100%,0%,0%);fill-opacity:1;" d="M 15.925781 18.507813 L 16.648438 18.574219 L 17.238281 18.507813 L 17.246094 18.507813 "/>
<path style=" stroke:none;fill-rule:nonzero;fill:rgb(100%,0%,0%);fill-opacity:1;" d="M 3.273438 14.347656 C 2.683594 16.171875 3.722656 18.484375 3.683594 20.429688 C 4.261719 23.292969 4.015625 24.871094 3.808594 27.757813 L 19.09375 27.476563 L 5.898438 27.476563 L 5.898438 24.046875 L 17.246094 24.046875 L 32.488281 23.949219 L 32.511719 23.355469 L 32.519531 23.289063 L 32.566406 22.53125 L 5.632813 22.199219 L 5.632813 21.902344 L 5.601563 21.542969 L 5.503906 21.175781 L 5.371094 20.878906 L 5.386719 20.289063 L 5.304688 19.566406 L 5.304688 19.5625 L 5.207031 18.964844 C 4.945313 17.3125 4.605469 16.054688 5.632813 14.546875 C 7.289063 14.535156 8.9375 14.421875 10.59375 14.433594 "/>
<path style=" stroke:none;fill-rule:nonzero;fill:rgb(100%,0%,0%);fill-opacity:1;" d="M 32.8125 14.152344 L 23.84375 14.285156 L 31.230469 14.546875 L 31.496094 15.074219 L 30.703125 21.9375 C 22.351563 22.183594 13.988281 22.214844 5.632813 22.199219 L 32.566406 22.53125 C 32.566406 20.402344 33.722656 16.085938 32.972656 14.46875 "/>
<path style=" stroke:none;fill-rule:nonzero;fill:rgb(100%,0%,0%);fill-opacity:1;" d="M 12.5 12.386719 C 8.035156 13.253906 5.3125 10.847656 3.273438 14.347656 C 6.386719 14.761719 9.617188 14.210938 12.761719 14.546875 L 12.894531 14.582031 L 13.023438 14.714844 L 13.15625 14.910156 L 13.289063 15.074219 L 13.292969 15.664063 L 13.417969 16.265625 L 13.648438 16.808594 L 17.328125 16.695313 L 16.691406 16.648438 L 16.519531 16.625 L 15.820313 16.5 L 15.398438 16.394531 C 15.398438 14.960938 14.644531 13.015625 13.1875 12.503906 "/>
<path style=" stroke:none;fill-rule:nonzero;fill:rgb(100%,0%,0%);fill-opacity:1;" d="M 27.535156 12.371094 C 23.082031 12.566406 22.292969 11.480469 20.675781 16.394531 C 18.140625 16.867188 16.367188 16.617188 13.648438 16.808594 C 14.105469 17.574219 15.023438 18.367188 15.925781 18.507813 L 19.09375 18.507813 L 19.457031 18.539063 L 20.015625 18.574219 L 20.578125 18.472656 L 20.9375 18.242188 C 21.765625 17.917969 22.367188 17.285156 22.6875 16.460938 L 22.960938 15.8125 L 23.21875 15.234375 L 23.246094 15.175781 L 23.597656 14.574219 L 23.84375 14.285156 L 32.8125 14.152344 L 32.433594 13.582031 L 31.996094 13.097656 L 31.5 12.703125 L 31.496094 12.703125 L 30.914063 12.601563 C 29.910156 12.453125 28.914063 12.378906 27.898438 12.375 "/>
<path style=" stroke:none;fill-rule:nonzero;fill:rgb(100%,0%,0%);fill-opacity:1;" d="M 5.570313 10.722656 L 6.300781 10.863281 L 6.691406 10.855469 L 17.246094 10.855469 "/>
<path style=" stroke:none;fill-rule:nonzero;fill:rgb(100%,0%,0%);fill-opacity:1;" d="M 32.320313 4.585938 L 31.957031 4.652344 L 31.757813 4.785156 L 31.230469 5.3125 L 31.496094 7.953125 L 30.964844 8.480469 L 30.40625 8.578125 L 29.777344 8.671875 L 29.074219 8.75 C 28.027344 8.871094 26.972656 8.914063 25.921875 8.914063 L 32.921875 8.992188 L 33.144531 8.371094 L 33.210938 8.015625 L 33.289063 7.300781 L 33.316406 6.660156 L 33.308594 6.402344 L 33.304688 5.667969 L 33.34375 5.3125 L 33.078125 4.785156 L 32.75 4.652344 "/>
<path style=" stroke:none;fill-rule:nonzero;fill:rgb(100%,0%,0%);fill-opacity:1;" d="M 17.972656 4.519531 L 17.773438 4.519531 L 17.246094 5.3125 L 17.246094 6.621094 C 17.246094 7.417969 17.246094 8.210938 17.246094 9.007813 L 3.675781 9.414063 L 4.050781 9.796875 L 4.625 10.261719 L 5.179688 10.578125 L 5.570313 10.722656 L 17.246094 10.855469 C 17.246094 11.898438 17.246094 12.945313 17.246094 13.988281 L 17.246094 14.8125 L 17.507813 15.339844 L 18.300781 15.601563 L 18.335938 15.601563 L 18.46875 15.570313 L 18.664063 15.472656 L 18.828125 15.339844 L 19.054688 14.761719 L 19.160156 14.351563 L 19.253906 13.742188 L 19.289063 13.042969 C 19.308594 12.265625 19.242188 11.359375 19.355469 10.589844 L 31.230469 10.589844 L 31.230469 10.457031 L 31.261719 10.359375 L 31.363281 10.324219 L 31.496094 10.324219 L 32.039063 10.003906 L 32.539063 9.550781 L 32.582031 9.503906 L 32.921875 8.992188 C 28.394531 9.035156 23.875 8.875 19.355469 8.742188 C 19.199219 7.855469 19.238281 6.953125 19.132813 6.066406 L 19.0625 5.609375 L 18.886719 4.941406 L 18.828125 4.785156 L 18.632813 4.652344 L 18.300781 4.554688 "/>
<path style=" stroke:none;fill-rule:nonzero;fill:rgb(100%,0%,0%);fill-opacity:1;" d="M 4.316406 4.519531 C 3.390625 4.800781 3 4.589844 2.996094 5.574219 C 3.109375 6.933594 2.585938 8.3125 3.675781 9.414063 L 17.246094 9.007813 L 5.632813 8.742188 L 5.105469 8.480469 L 4.9375 7.859375 L 4.910156 7.6875 L 4.863281 7.046875 L 4.878906 6.664063 L 4.90625 5.964844 L 4.910156 5.707031 L 4.84375 5.050781 L 4.84375 5.046875 "/>
<g clip-path="url(#clip1)" clip-rule="nonzero">
<path style=" stroke:none;fill-rule:nonzero;fill:rgb(100%,0%,0%);fill-opacity:1;" d="M 0.480469 70.253906 L 1.917969 68.816406 L 0.480469 0.785156 "/>
</g>
<path style=" stroke:none;fill-rule:nonzero;fill:rgb(100%,0%,0%);fill-opacity:1;" d="M 1.917969 68.816406 L 0.480469 0.785156 L 1.917969 2.222656 "/>
<path style=" stroke:none;fill-rule:nonzero;fill:rgb(100%,0%,0%);fill-opacity:1;" d="M 0.480469 0.785156 L 1.917969 2.222656 L 69.949219 0.785156 "/>
<path style=" stroke:none;fill-rule:nonzero;fill:rgb(100%,0%,0%);fill-opacity:1;" d="M 1.917969 2.222656 L 69.949219 0.785156 L 68.511719 2.222656 "/>
<g clip-path="url(#clip2)" clip-rule="nonzero">
<path style=" stroke:none;fill-rule:nonzero;fill:rgb(100%,0%,0%);fill-opacity:1;" d="M 69.949219 0.785156 L 68.511719 2.222656 L 69.949219 70.253906 "/>
</g>
<g clip-path="url(#clip3)" clip-rule="nonzero">
<path style=" stroke:none;fill-rule:nonzero;fill:rgb(100%,0%,0%);fill-opacity:1;" d="M 68.511719 2.222656 L 69.949219 70.253906 L 68.511719 68.816406 "/>
</g>
<g clip-path="url(#clip4)" clip-rule="nonzero">
<path style=" stroke:none;fill-rule:nonzero;fill:rgb(100%,0%,0%);fill-opacity:1;" d="M 69.949219 70.253906 L 68.511719 68.816406 L 40.484375 70.253906 "/>
</g>
<g clip-path="url(#clip5)" clip-rule="nonzero">
<path style=" stroke:none;fill-rule:nonzero;fill:rgb(100%,0%,0%);fill-opacity:1;" d="M 68.511719 68.816406 L 40.484375 70.253906 L 40.484375 68.816406 "/>
</g>
<g clip-path="url(#clip6)" clip-rule="nonzero">
<path style=" stroke:none;fill-rule:nonzero;fill:rgb(100%,0%,0%);fill-opacity:1;" d="M 40.484375 70.253906 L 40.484375 68.816406 L 0.480469 70.253906 "/>
<path style=" stroke:none;fill-rule:nonzero;fill:rgb(100%,0%,0%);fill-opacity:1;" d="M 40.484375 68.816406 L 0.480469 70.253906 L 1.917969 68.816406 "/>
</g>
</g>
</svg>
