<?xml version="1.0" encoding="UTF-8"?>
<svg xmlns="http://www.w3.org/2000/svg" xmlns:xlink="http://www.w3.org/1999/xlink" width="34.02pt" height="28.06pt" viewBox="0 0 34.02 28.06" version="1.2">
<defs>
<clipPath id="clip1">
  <path d="M 0.078125 0 L 32.996094 0 L 32.996094 27.152344 L 0.078125 27.152344 Z M 0.078125 0 "/>
</clipPath>
</defs>
<g id="surface1">
<g clip-path="url(#clip1)" clip-rule="nonzero">
<path style=" stroke:none;fill-rule:evenodd;fill:rgb(8.999634%,48.599243%,68.998718%);fill-opacity:1;" d="M 0.078125 0.351563 L 32.992188 27.148438 L 0.078125 27.148438 Z M 12.585938 8.199219 C 12.28125 9.101563 11.707031 10.664063 11.707031 10.804688 C 11.679688 10.941406 11.953125 10.859375 11.925781 11.078125 C 11.953125 11.898438 11.515625 11.324219 11.433594 11.679688 C 10.828125 13.601563 10.199219 15.628906 10.417969 15.683594 C 10.964844 15.796875 11.570313 15.601563 11.925781 15.796875 C 12.585938 15.933594 12.171875 17.6875 13.050781 17.441406 C 13.707031 17.414063 14.09375 17.441406 13.761719 16.371094 C 13.542969 15.519531 12.53125 14.644531 12.363281 12.941406 C 12.28125 11.242188 13.296875 9.347656 14.859375 7.59375 C 15.902344 6.085938 13.378906 7.101563 13.820313 5.785156 C 14.175781 5.152344 14.886719 5.535156 15.300781 6.277344 C 15.738281 6.851563 15.601563 6.964844 17.546875 6.46875 C 18.316406 6.332031 19.660156 6.386719 19.632813 6.933594 C 19.605469 7.15625 19.03125 7.074219 18.753906 7.347656 C 18.535156 7.484375 18.207031 8.609375 17.742188 9.980469 C 17.273438 11.050781 18.015625 11.160156 17.546875 11.515625 C 17.027344 11.734375 17.464844 11.351563 16.589844 14.3125 C 16.316406 15.90625 16.257813 15.328125 17.6875 16.34375 C 18.425781 16.890625 18.425781 16.863281 18.5625 17.660156 C 18.808594 19.03125 18.894531 19.304688 19.441406 18.730469 C 19.878906 18.234375 20.183594 17.933594 19.304688 16.863281 C 18.480469 16.042969 17.6875 13.492188 19.878906 10.035156 C 20.59375 8.582031 21.25 7.839844 22.789063 7.15625 C 22.292969 6.933594 22.128906 6.6875 21.332031 6.605469 C 19.496094 6.140625 21.855469 4.386719 23.171875 6.964844 C 24.214844 6.25 25.667969 6.769531 25.339844 7.046875 C 24.980469 7.320313 24.734375 7.15625 24.542969 7.648438 C 23.089844 11.433594 24.105469 9.953125 23.914063 10.941406 C 23.664063 11.679688 23.445313 10.804688 23.171875 12.449219 C 22.539063 15.164063 22.625 14.753906 23.308594 14.78125 C 24.433594 14.835938 24.160156 14.066406 24.925781 16.207031 C 24.789063 10.609375 24.515625 7.375 26.929688 6.496094 C 26.546875 4.90625 24.542969 1.917969 22.429688 0.820313 C 20.675781 -0.00390625 23.914063 0.105469 27.039063 4.054688 C 29.945313 7.59375 28.4375 7.238281 28.382813 10.664063 C 28.082031 11.984375 27.753906 12.09375 27.699219 11.652344 C 27.585938 10.75 28 10.199219 27.640625 8.855469 C 27.121094 8.113281 25.777344 8.527344 27.808594 13.792969 C 29.289063 17.25 24.078125 22.160156 20.457031 22.625 C 20.238281 22.953125 20.539063 23.777344 19.6875 23.558594 C 19.632813 23.0625 19.714844 23.421875 19.796875 22.789063 C 18.453125 22.734375 16.507813 22.898438 14.3125 22.734375 C 14.066406 23.0625 14.203125 24.132813 13.433594 23.640625 C 13.625 22.679688 14.148438 22.707031 12.667969 22.597656 C 11.625 22.625 9.898438 21.910156 8.550781 20.980469 C 8.277344 21.636719 8.140625 21.746094 7.894531 21.636719 C 7.730469 21.527344 7.621094 21.582031 8.003906 20.730469 C 1.585938 13.957031 5.34375 15.382813 4.65625 8.964844 C 3.644531 4.273438 6.113281 5.453125 6.660156 3.644531 C 6.851563 2.792969 5.753906 2.21875 6.632813 2.273438 C 7.949219 2.382813 8.496094 3.835938 7.207031 4.550781 C 6.332031 5.097656 7.59375 5.070313 7.8125 5.261719 C 8.910156 5.894531 8.910156 7.292969 8.085938 6.605469 C 7.34375 5.949219 5.808594 6.332031 6 7.210938 C 6.25 10.28125 6.441406 11.160156 5.78125 13.050781 C 5.125 15.164063 5.945313 16.015625 6.960938 16.753906 C 7.179688 16.917969 7.566406 16.453125 8.304688 16.507813 C 8.992188 16.507813 9.265625 16.453125 8.578125 16.152344 C 7.289063 15.601563 6.25 14.175781 6.824219 11.707031 C 7.320313 9.292969 8.359375 9.515625 9.839844 7.785156 C 10.335938 7.15625 8.9375 7.128906 9.183594 6.359375 C 9.320313 5.921875 10.226563 6.195313 10.335938 6.742188 C 10.445313 7.375 10.636719 7.375 11.789063 7.347656 C 13.132813 7.292969 13.296875 7.484375 13.269531 7.894531 C 13.214844 8.199219 12.613281 8.03125 12.585938 8.199219 Z M 25.476563 17.878906 C 26.492188 16.070313 26.160156 14.753906 26.160156 13.4375 C 26.078125 12.011719 26.105469 11.242188 26.628906 13.328125 C 26.957031 15.027344 27.011719 16.78125 25.804688 18.097656 C 24.734375 19.277344 24.816406 18.785156 25.476563 17.878906 Z M 20.949219 19.414063 C 21.386719 18.261719 21.195313 18.015625 19.714844 19.195313 C 19.058594 19.496094 18.976563 20.511719 19.988281 20.703125 C 20.566406 20.839844 20.59375 20.757813 20.949219 19.414063 Z M 18.425781 20.925781 C 18.042969 21.089844 17.464844 21.117188 18.097656 20.484375 C 18.617188 19.9375 19.140625 20.621094 18.425781 20.925781 Z M 26.433594 7.648438 C 25.667969 8.472656 25.558594 9.046875 25.695313 9.292969 C 25.832031 9.542969 26.078125 9.460938 26.023438 9.183594 C 26.078125 8.609375 26.683594 8.5 26.902344 8.113281 C 27.3125 7.183594 26.792969 7.183594 26.433594 7.648438 Z M 22.898438 7.675781 C 23.855469 6.824219 24.1875 7.074219 23.855469 7.921875 C 23.554688 8.9375 23.363281 9.542969 23.253906 10.171875 C 23.007813 11.488281 21.417969 10.636719 21.71875 9.15625 C 21.800781 8.554688 22.429688 8.03125 22.898438 7.675781 Z M 24.433594 18.289063 C 25.230469 17.054688 24.40625 15.300781 23.746094 15.464844 C 23.226563 15.546875 22.292969 15.382813 22.074219 16.644531 C 21.9375 17.824219 21.140625 19.550781 21.332031 20.128906 C 21.472656 20.648438 23.882813 19.441406 24.433594 18.289063 Z M 21.609375 16.890625 C 21.800781 16.234375 21.882813 15.796875 21.445313 15.738281 C 20.457031 15.601563 20.210938 16.507813 20.949219 17.46875 C 21.140625 17.796875 21.527344 17.441406 21.609375 16.890625 Z M 9.183594 17.414063 C 9.128906 17.605469 9.101563 17.851563 8.964844 18.234375 C 8.800781 18.785156 8.195313 18.429688 7.703125 17.660156 C 7.402344 17.222656 7.484375 17 8.058594 17.054688 C 9.128906 17.222656 9.265625 17.085938 9.183594 17.414063 Z M 8.691406 14.726563 C 7.8125 13.710938 7.8125 12.53125 8.003906 11.460938 C 8.058594 10.417969 8.773438 10.199219 9.074219 10.609375 C 9.980469 12.039063 10.773438 11.515625 10.964844 11.652344 C 10.71875 12.941406 10.417969 13.4375 10.253906 14.066406 C 9.867188 15.765625 9.785156 15.710938 8.691406 14.726563 Z M 12.144531 8.058594 C 12.253906 7.648438 12.035156 7.59375 10.691406 7.976563 C 9.511719 8.363281 9.046875 9.488281 9.484375 9.980469 C 9.785156 10.335938 9.980469 10.96875 10.582031 11.105469 C 11.296875 11.160156 11.296875 10.886719 11.324219 10.636719 C 11.433594 9.953125 12.0625 8.5 12.144531 8.058594 Z M 9.785156 19.304688 C 10.089844 19.523438 10.226563 19.9375 10.910156 19.332031 C 12.472656 17.714844 12.117188 17.796875 11.734375 16.753906 C 11.679688 16.480469 11.460938 16.234375 10.855469 16.261719 C 9.101563 15.988281 11.296875 17.496094 10.0625 17.46875 C 9.703125 17.386719 9.785156 17.386719 9.566406 17.960938 C 9.074219 19.386719 9.292969 19.03125 9.785156 19.304688 Z M 12.722656 19.46875 C 12.859375 20.046875 13.433594 20.511719 12.832031 20.539063 C 12.667969 20.539063 12.472656 20.484375 12.089844 20.457031 C 11.433594 20.402344 11.214844 20.320313 11.652344 19.582031 C 12.390625 18.566406 12.503906 18.757813 12.722656 19.46875 Z M 15.355469 16.125 C 15.847656 16.425781 15.65625 16.507813 15.546875 16.972656 C 15.410156 17.988281 15.191406 17.988281 15.027344 17.25 C 15.027344 16.863281 14.914063 16.644531 14.886719 16.316406 C 14.914063 15.933594 14.914063 15.824219 15.355469 16.125 Z M 21.167969 14.945313 C 22.101563 15.054688 22.320313 14.808594 22.402344 13.847656 C 22.570313 12.914063 22.707031 12.3125 22.84375 11.40625 C 22.320313 11.679688 21.855469 11.160156 21.5 10.941406 C 21.277344 10.832031 21.140625 10.804688 20.976563 10.636719 C 20.921875 10.582031 20.8125 10.363281 20.402344 11.597656 C 19.714844 14.121094 20.15625 14.753906 21.167969 14.945313 Z M 14.804688 19.773438 C 14.667969 20.675781 14.039063 21.035156 13.351563 18.976563 C 13.078125 18.179688 13.269531 18.070313 13.652344 18.207031 C 15.027344 18.621094 15.109375 19.058594 14.804688 19.773438 Z M 17.136719 10.335938 C 17.273438 9.707031 17.6875 8.71875 17.933594 7.703125 C 18.097656 7.046875 17.796875 6.824219 16.863281 7.15625 C 15.109375 7.757813 14.53125 8.71875 15.21875 9.980469 C 15.765625 11.296875 16.945313 11.542969 17.136719 10.335938 Z M 13.570313 11.84375 C 13.515625 13.1875 14.09375 13.929688 14.722656 14.589844 C 15.792969 15.464844 15.902344 15.4375 16.09375 14.367188 C 16.589844 11.789063 16.644531 11.707031 16.535156 11.679688 C 15.574219 11.488281 15.464844 11.679688 14.859375 11.078125 C 14.039063 10.226563 13.707031 10.253906 13.570313 11.84375 Z M 16.148438 16.644531 C 15.875 16.945313 15.929688 17.605469 15.355469 19.140625 C 14.585938 21.171875 15.164063 21.117188 16.78125 20.757813 C 17.246094 20.621094 17.605469 20.347656 17.851563 20.074219 C 18.289063 19.664063 18.453125 19.550781 17.933594 18.703125 C 17.578125 17.90625 17.796875 17.167969 17.136719 16.972656 C 16.835938 16.917969 16.453125 16.289063 16.148438 16.644531 Z M 16.148438 16.644531 "/>
</g>
</g>
</svg>
